<?xml version="1.0" encoding="utf-8"?>
<!-- Generator: Adobe Illustrator 17.0.0, SVG Export Plug-In . SVG Version: 6.00 Build 0)  -->
<!DOCTYPE svg PUBLIC "-//W3C//DTD SVG 1.1//EN" "http://www.w3.org/Graphics/SVG/1.1/DTD/svg11.dtd">
<svg version="1.1" id="Layer_1" xmlns="http://www.w3.org/2000/svg" xmlns:xlink="http://www.w3.org/1999/xlink" x="0px" y="0px"
	 width="80px" height="30px" viewBox="0 0 80 30" enable-background="new 0 0 80 30" xml:space="preserve">
<g>
	<polygon fill="#020202" points="34.843,4.335 33.371,5.68 33.371,23.346 34.843,24.692 	"/>
	<polygon fill="#020202" points="37.828,5.134 36.356,6.354 36.356,22.378 37.828,23.599 	"/>
	<polygon fill="#020202" points="40.813,6.816 39.342,7.819 39.342,20.997 40.813,22.001 	"/>
	<polygon fill="#020202" points="43.799,8.287 42.327,9.094 42.327,19.681 43.799,20.487 	"/>
	<rect x="45.27" y="7.901" fill="#020202" width="2.018" height="16.65"/>
	<rect x="47.961" y="8.952" fill="#020202" width="0.757" height="11.815"/>
	<rect x="49.222" y="11.643" fill="#020202" width="1.892" height="5.718"/>
	<path fill="#020202" d="M32.572,25.182V3.242H31.1v21.94h-0.841V3.242h-3.909c-1.054,0-1.908,0.854-1.908,1.908v20.158
		c0,1.054,0.854,1.908,1.908,1.908h1.428v0.07h25.144v-2.103H32.572z"/>
</g>
<g>
	<g>
		<path d="M21.247,21.815c0,2.271,0.076,4.139,0.228,5.605c-1.51-0.065-4.057-0.098-7.642-0.098c-5.204,0-9.098,0.032-11.683,0.098
			v-0.668c0.717-0.032,1.235-0.119,1.556-0.261c0.32-0.141,0.538-0.401,0.652-0.782c0.114-0.38,0.171-0.988,0.171-1.825V7.331
			c0-0.836-0.06-1.445-0.179-1.825c-0.12-0.38-0.34-0.641-0.66-0.782c-0.32-0.141-0.833-0.228-1.54-0.26V3.795
			C4.736,3.86,8.63,3.893,13.833,3.893c3.269,0,5.594-0.033,6.974-0.098c-0.152,2.086-0.229,3.954-0.229,5.605
			c0,1.032,0.033,1.836,0.098,2.412h-0.766c-0.391-2.585-1.132-4.44-2.224-5.564c-1.091-1.124-2.398-1.686-3.918-1.686h-0.44
			c-0.608,0-1.048,0.049-1.32,0.146s-0.459,0.291-0.562,0.579c-0.104,0.288-0.155,0.747-0.155,1.376v8.538h0.342
			c0.792,0,1.507-0.223,2.143-0.668c0.635-0.445,1.159-1.005,1.572-1.678c0.413-0.673,0.689-1.358,0.831-2.053h0.766
			c-0.087,1.304-0.13,2.385-0.13,3.243l0.017,1.499c0,0.956,0.07,2.536,0.211,4.741h-0.766c-0.141-0.836-0.421-1.589-0.839-2.257
			c-0.418-0.668-0.953-1.194-1.604-1.58c-0.652-0.386-1.385-0.579-2.2-0.579h-0.342v8.684c0,0.642,0.051,1.104,0.155,1.386
			c0.103,0.282,0.291,0.473,0.562,0.57s0.711,0.146,1.32,0.146h1.108c0.804,0,1.61-0.255,2.42-0.766
			c0.809-0.511,1.548-1.355,2.216-2.534s1.17-2.713,1.507-4.603h0.766C21.279,19.546,21.247,20.566,21.247,21.815z"/>
	</g>
</g>
<g>
	<g>
		<path d="M77.489,26.2c0.348,0.342,0.69,0.524,1.026,0.546v0.668c-1.607-0.065-3.633-0.098-6.077-0.098
			c-2.542,0-4.41,0.032-5.604,0.098v-0.668c0.836-0.032,1.436-0.136,1.8-0.31s0.546-0.478,0.546-0.912
			c0-0.337-0.136-0.864-0.407-1.581l-1.987-5.475h-6.729l-0.57,1.499c-0.717,1.868-1.075,3.318-1.075,4.351
			c0,0.912,0.252,1.537,0.757,1.874c0.506,0.337,1.258,0.521,2.257,0.554v0.668c-1.662-0.065-3.117-0.098-4.366-0.098
			c-1.054,0-1.912,0.032-2.574,0.098v-0.668c0.543-0.087,1.062-0.429,1.556-1.026s0.996-1.559,1.507-2.884L64.96,3.788
			c0.478,0.044,1.064,0.065,1.76,0.065c0.694,0,1.276-0.021,1.743-0.065l8.082,20.823C76.827,25.328,77.142,25.858,77.489,26.2z
			 M63.526,9.458l-3.21,8.342h6.24L63.526,9.458z"/>
	</g>
</g>
<g>
</g>
<g>
</g>
<g>
</g>
<g>
</g>
<g>
</g>
<g>
</g>
<g>
</g>
<g>
</g>
<g>
</g>
<g>
</g>
<g>
</g>
<g>
</g>
<g>
</g>
<g>
</g>
<g>
</g>
</svg>
