<?xml version="1.0" encoding="utf-8"?>
<!-- Generator: Adobe Illustrator 17.0.0, SVG Export Plug-In . SVG Version: 6.00 Build 0)  -->
<!DOCTYPE svg PUBLIC "-//W3C//DTD SVG 1.1//EN" "http://www.w3.org/Graphics/SVG/1.1/DTD/svg11.dtd">
<svg version="1.1" id="Layer_1" xmlns="http://www.w3.org/2000/svg" xmlns:xlink="http://www.w3.org/1999/xlink" x="0px" y="0px"
	 width="142px" height="267px" viewBox="0 0 142 267" enable-background="new 0 0 142 267" xml:space="preserve">
<g>
	<path d="M132.4,155.971c-4.901,6.363-12.963,12.35-24.185,17.961c6.402,5.69,11.064,11.224,13.989,16.597
		c2.923,5.376,4.387,11.303,4.387,17.782c0,8.536-2.708,15.984-8.121,22.347c-5.414,6.361-12.922,11.263-22.524,14.7
		c-9.603,3.438-20.568,5.157-32.897,5.157c-13.674,0-24.777-2.095-33.312-6.283c-4.742-2.53-8.319-5.533-10.729-9.01
		c-2.412-3.479-3.616-8.102-3.616-13.87c0-3.479,0.889-6.719,2.667-9.721c1.778-3.005,4.307-5.415,7.587-7.232
		c3.279-1.816,6.974-2.727,11.084-2.727c6.639,0,11.953,1.799,15.945,5.395c3.99,3.596,5.986,8.278,5.986,14.048
		c0,4.742-1.265,9.069-3.793,12.981c-2.53,3.912-5.809,6.698-9.839,8.357c0.789,0.789,2.765,1.56,5.927,2.312
		c3.16,0.751,6.44,1.127,9.84,1.127c8.456,0,14.66-1.977,18.612-5.928c3.951-3.953,5.928-8.932,5.928-14.938
		c0-7.667-1.857-13.556-5.571-17.664c-3.716-4.108-9.11-8.456-16.183-13.04c-7.074-4.583-12.429-8.101-16.063-10.551
		c-11.618-7.745-20.391-13.989-26.318-18.731c-5.928-4.742-10.592-9.84-13.989-15.293c-3.399-5.453-5.098-11.695-5.098-18.73
		c0-7.982,2.449-15.154,7.35-21.517c4.899-6.361,12.961-12.348,24.185-17.96c-6.481-5.69-11.185-11.203-14.107-16.538
		c-2.925-5.335-4.387-11.242-4.387-17.723c0-8.536,2.707-15.984,8.121-22.347c5.413-6.361,12.922-11.281,22.525-14.76
		c9.603-3.477,20.607-5.216,33.016-5.216c13.752,0,24.816,2.134,33.194,6.401c4.742,2.53,8.317,5.533,10.729,9.01
		c2.41,3.479,3.616,8.062,3.616,13.752c0,3.479-0.89,6.719-2.667,9.721c-1.778,3.004-4.309,5.415-7.588,7.231
		c-3.28,1.819-6.976,2.727-11.084,2.727c-6.639,0-11.935-1.796-15.886-5.394c-3.953-3.595-5.928-8.278-5.928-14.048
		c0-4.663,1.245-8.951,3.734-12.863s5.75-6.737,9.78-8.477c-0.87-0.711-2.865-1.461-5.986-2.252
		c-3.123-0.789-6.384-1.186-9.78-1.186c-8.379,0-14.563,1.977-18.554,5.928c-3.992,3.953-5.987,8.971-5.987,15.056
		c0,7.51,1.856,13.337,5.572,17.486c3.714,4.149,9.108,8.517,16.182,13.1c7.072,4.585,12.466,8.141,16.182,10.67
		c11.538,7.746,20.291,13.989,26.259,18.73c5.967,4.742,10.649,9.84,14.049,15.293c3.396,5.454,5.098,11.659,5.098,18.612
		C139.751,142.438,137.3,149.61,132.4,155.971z M101.696,168.597c2.054-3.397,3.082-7.824,3.082-13.277
		c0-4.505-1.186-8.574-3.557-12.211c-2.371-3.635-6.442-7.686-12.211-12.151c-5.77-4.464-14.622-10.569-26.555-18.316
		c-9.327-6.165-16.795-11.42-22.406-15.767c-2.056,3.399-3.082,7.824-3.082,13.277c0,4.505,1.186,8.595,3.556,12.27
		c2.371,3.675,6.42,7.726,12.152,12.151c5.729,4.428,14.6,10.552,26.614,18.376C88.614,159.035,96.083,164.251,101.696,168.597z"/>
</g>
<g>
</g>
<g>
</g>
<g>
</g>
<g>
</g>
<g>
</g>
<g>
</g>
<g>
</g>
<g>
</g>
<g>
</g>
<g>
</g>
<g>
</g>
<g>
</g>
<g>
</g>
<g>
</g>
<g>
</g>
</svg>
